<?xml version="1.0" encoding="utf-8"?>
<!-- Generator: Adobe Illustrator 26.2.1, SVG Export Plug-In . SVG Version: 6.00 Build 0)  -->
<svg version="1.1" id="Calque_1" xmlns="http://www.w3.org/2000/svg" xmlns:xlink="http://www.w3.org/1999/xlink" x="0px" y="0px"
	 viewBox="0 0 700 700" style="enable-background:new 0 0 700 700;" xml:space="preserve">
<g>
	<path d="M497.8,300.7H201c-11.8,0-21.3-9.5-21.3-21.3s9.5-21.3,21.3-21.3h296.8c11.8,0,21.3,9.5,21.3,21.3
		C519.7,291.2,509.6,300.7,497.8,300.7L497.8,300.7z"/>
	<path d="M544.3,132.7H154.6c-11.8,0-21.3-9.5-21.3-21.3s9.5-21.3,21.3-21.3h390.3c11.8,0,21.3,9.5,21.3,21.3
		S556.6,132.7,544.3,132.7L544.3,132.7z"/>
	<path d="M544.3,468.7H154.6c-11.8,0-21.3-9.5-21.3-21.3s9.5-21.3,21.3-21.3h390.3c11.8,0,21.3,9.5,21.3,21.3
		S556.6,468.7,544.3,468.7L544.3,468.7z"/>
</g>
</svg>
