<svg xmlns="http://www.w3.org/2000/svg" width="167.155" height="93.657" viewBox="0 0 167.155 93.657">
  <g id="logo_ynov_campus_lyon_blanc" transform="translate(-51.7 -51.8)">
    <g id="Groupe_1" data-name="Groupe 1" transform="translate(51.762 77.722)">
      <path id="Tracé_5" data-name="Tracé 5" d="M188.719,313.289a5.766,5.766,0,0,1,0-11.528,5.9,5.9,0,0,1,4.362,2.087l1.558-2.025a8.52,8.52,0,0,0-5.982-2.524,8.272,8.272,0,0,0-.093,16.544,8.8,8.8,0,0,0,6.076-2.679l-1.558-1.838A6.279,6.279,0,0,1,188.719,313.289Z" transform="translate(-140.364 -248.11)" fill="#fff"/>
      <path id="Tracé_6" data-name="Tracé 6" d="M243.848,299.6,236.9,315.957h2.773l1.5-3.708h7.914l1.5,3.708h2.835L246.559,299.6Zm-1.682,10.219,2.96-7.259,2.96,7.259Z" transform="translate(-179.26 -248.316)" fill="#fff"/>
      <path id="Tracé_7" data-name="Tracé 7" d="M314.05,310.474l-5.2-10.874H305.7v16.357h2.493V303.744l4.985,10.5h1.714l4.954-10.5.031,12.213h2.43V299.6h-3.116Z" transform="translate(-226.624 -248.316)" fill="#fff"/>
      <path id="Tracé_8" data-name="Tracé 8" d="M387.662,299.6H381.4v16.357h2.648v-4.923h3.614c3.957,0,6.231-2.15,6.231-5.857C393.894,301.625,391.619,299.6,387.662,299.6Zm-.093,8.942h-3.49v-6.481h3.49c2.43,0,3.8,1.028,3.8,3.178C391.339,307.483,390,308.542,387.569,308.542Z" transform="translate(-278.739 -248.316)" fill="#fff"/>
      <path id="Tracé_9" data-name="Tracé 9" d="M449,309.1c0,2.773-1.589,4.424-4.144,4.424-2.586,0-4.206-1.651-4.206-4.424v-9.6H438v9.6c0,4.268,2.617,6.886,6.854,6.886s6.823-2.617,6.823-6.886v-9.6h-2.648v9.6Z" transform="translate(-317.704 -248.247)" fill="#fff"/>
      <path id="Tracé_10" data-name="Tracé 10" d="M502.126,303.5c0-1.09,1-1.714,2.555-1.714a9.067,9.067,0,0,1,4.611,1.527l1.09-2.43a10.037,10.037,0,0,0-5.515-1.682c-3.427,0-5.733,1.745-5.733,4.549,0,5.826,8.475,3.8,8.475,7.446,0,1.246-1.09,1.994-2.929,1.994a8.1,8.1,0,0,1-5.328-2.4l-1.153,2.4a9.543,9.543,0,0,0,6.418,2.586c3.458,0,5.92-1.807,5.92-4.736C510.6,305.151,502.126,307.083,502.126,303.5Z" transform="translate(-359.148 -248.041)" fill="#fff"/>
      <path id="Tracé_11" data-name="Tracé 11" d="M347.326,176.064A20.532,20.532,0,1,0,326.7,155.532,20.59,20.59,0,0,0,347.326,176.064Zm0-31.25a10.749,10.749,0,1,1-10.811,10.749A10.784,10.784,0,0,1,347.326,144.814Z" transform="translate(-241.082 -135)" fill="#fff"/>
      <path id="Tracé_12" data-name="Tracé 12" d="M180.9,176.478h9.814v-19.94a10.812,10.812,0,1,1,21.623,0v19.94h9.814v-19.94a20.628,20.628,0,1,0-41.251,0Z" transform="translate(-140.708 -135.413)" fill="#fff"/>
      <path id="Tracé_13" data-name="Tracé 13" d="M69.846,156.887a10.515,10.515,0,0,0-.717-3.863L62.493,135.7H51.9l11.777,30.627A10.069,10.069,0,0,0,69.846,156.887Z" transform="translate(-51.9 -135.482)" fill="#fff"/>
      <path id="Tracé_14" data-name="Tracé 14" d="M514.562,176.478,530.234,135.6H519.672L504,176.478Z" transform="translate(-363.141 -135.413)" fill="#fff"/>
      <path id="Tracé_15" data-name="Tracé 15" d="M471.615,156.787a10.515,10.515,0,0,0-.717-3.863L464.262,135.6H453.7l11.777,30.658A10.133,10.133,0,0,0,471.615,156.787Z" transform="translate(-328.513 -135.413)" fill="#fff"/>
      <path id="Tracé_16" data-name="Tracé 16" d="M95.391,135.6,69.5,203.054H80.062L105.953,135.6Z" transform="translate(-64.016 -135.413)" fill="#fff"/>
    </g>
    <g id="Groupe_2" data-name="Groupe 2" transform="translate(51.7 51.8)">
      <path id="Tracé_17" data-name="Tracé 17" d="M54.722,52.5V65.492h6.761V68.2H51.7V52.5Z" transform="translate(-51.7 -52.282)" fill="#fff"/>
      <path id="Tracé_18" data-name="Tracé 18" d="M93.28,63.062V68.2H90.289V63.156L84.4,52.5h3.053l4.3,7.384L95.959,52.5h3.022Z" transform="translate(-74.212 -52.282)" fill="#fff"/>
      <path id="Tracé_19" data-name="Tracé 19" d="M148.262,59.838a8.388,8.388,0,1,1-8.381-8.038A8.131,8.131,0,0,1,148.262,59.838Zm-13.647,0a5.379,5.379,0,0,0,5.328,5.39,5.359,5.359,0,1,0-5.328-5.39Z" transform="translate(-106.637 -51.8)" fill="#fff"/>
      <path id="Tracé_20" data-name="Tracé 20" d="M207.734,52.5V68.2H204.9l-8.07-10.811V68.2H193.9V52.5h2.835l8.1,10.843V52.5Z" transform="translate(-149.595 -52.282)" fill="#fff"/>
    </g>
  </g>
</svg>
