<svg xmlns="http://www.w3.org/2000/svg" width="41.394" height="50.784" viewBox="0 0 41.394 50.784">
  <g id="picto_ynov_informatique_security" transform="translate(-11.66 -8.62)">
    <path id="Tracé_1" data-name="Tracé 1" d="M21.237,23.793v3.1H18.63V42.806H38.4V26.943H35.8v-3.1a7.279,7.279,0,0,0-14.558,0Zm15.645,4.656v12.82H20.151v-12.8ZM28.517,18.034a5.758,5.758,0,0,1,5.758,5.758v3.1H22.759v-3.1a5.758,5.758,0,0,1,5.758-5.758Z" transform="translate(3.848 4.383)" fill="#8ed6da"/>
    <path id="Tracé_2" data-name="Tracé 2" d="M21.99,24.51h9.343v1.521H21.99Z" transform="translate(5.703 8.772)" fill="#8ed6da"/>
    <path id="Tracé_3" data-name="Tracé 3" d="M52.542,14.828,32.6,8.62h-.435L12.188,14.828a.729.729,0,0,0-.528.7V31.684A29.039,29.039,0,0,0,32.147,59.4h.435a29.039,29.039,0,0,0,20.472-27.72V15.527a.729.729,0,0,0-.512-.7Zm-.962,16.855A27.425,27.425,0,0,1,32.613,57.821l-.248.093-.248-.093A27.425,27.425,0,0,1,13.166,31.684V16.163l19.2-5.991,19.2,5.913Z" transform="translate(0 0)" fill="#8ed6da"/>
  </g>
</svg>
