<svg xmlns="http://www.w3.org/2000/svg" xmlns:xlink="http://www.w3.org/1999/xlink" width="72.495" height="86.003" viewBox="0 0 72.495 86.003">
  <defs>
    <clipPath id="clip-path">
      <rect id="Rectangle_11" data-name="Rectangle 11" width="72.495" height="86.003" transform="translate(357.292 21.278)" fill="none"/>
    </clipPath>
  </defs>
  <g id="Groupe_15" data-name="Groupe 15" transform="translate(-357.292 -21.278)">
    <g id="Groupe_3" data-name="Groupe 3" clip-path="url(#clip-path)">
      <path id="Tracé_21" data-name="Tracé 21" d="M1123.495,498.235a49.45,49.45,0,0,1,10.732-2.67,2.143,2.143,0,0,0-.064-.311,20.083,20.083,0,0,0-3.6-6.4,3.368,3.368,0,0,0-2.991-1.179,7.57,7.57,0,0,0-1.887.386,4.114,4.114,0,0,0-3.1,3.634c-.193,2.219.482,4.32.911,6.54m-4.824,3.013c-2.637.322-4,2.884-2.659,4.878a1.032,1.032,0,0,0,.633.44,16.242,16.242,0,0,0,3.141.1,50.036,50.036,0,0,0,5.2-.847c4.1-.9,8.191-1.833,12.254-2.841a38.539,38.539,0,0,0,7.655-2.8,1.433,1.433,0,0,0,.654-.783,3.007,3.007,0,0,0-1.168-3.356,3.722,3.722,0,0,0-3.924-.3c.129.45.29.9.375,1.351a2.156,2.156,0,0,1-1.683,2.745,7.043,7.043,0,0,1-2.219.172c-1.019-.064-1.383-.461-1.6-1.458-.107-.5-.225-1.008-.365-1.5a.567.567,0,0,0-.729-.429,45.016,45.016,0,0,0-8.877,2.133c-.515.193-1.008.429-1.565.665.268.547.493,1.008.718,1.458a1.607,1.607,0,0,1-.536,2.3,5.188,5.188,0,0,1-3.13,1,1.739,1.739,0,0,1-1.651-1.4c-.118-.515-.354-1.008-.526-1.522m3.742-4.192a17.072,17.072,0,0,1-.386-6.465c.665-3.742,5.65-5.746,8.673-2.916a13.732,13.732,0,0,1,3.248,4.589c.868,2,1.565,4.085,2.359,6.122.086.214.257.482.45.536a3.552,3.552,0,0,0,2.852-.354.876.876,0,0,0,.482-1.126c-.976-2.948-1.844-5.95-2.927-8.856a14.807,14.807,0,0,0-4.235-6.293c-2.337-1.951-5-2.862-8.019-1.951a12.959,12.959,0,0,0-5.564,3.474,7.287,7.287,0,0,0-2.187,4.889,24.54,24.54,0,0,0,.225,4.16,56.594,56.594,0,0,0,1.029,5.693,42.117,42.117,0,0,0,1.426,4.2.527.527,0,0,0,.407.279,16.469,16.469,0,0,0,2.723-.354c.9-.247.922-.461.654-1.372-.493-1.683-.965-3.388-1.212-4.256m23.146,3.881c-.611.343-1.147.708-1.726.965a50.148,50.148,0,0,1-9.37,2.895c-2.67.6-5.36,1.147-8.041,1.715-3.216.675-6.411,1.6-9.767,1.072-.5-.075-.59.193-.44.622.2.59.429,1.168.59,1.769,1.222,4.674,2.423,9.359,3.667,14.023.375,1.4.847,2.787,1.3,4.181a1.856,1.856,0,0,0,1.9,1.351,51.447,51.447,0,0,0,10.271-.407,53.668,53.668,0,0,0,10.324-2.723c1.5-.547,2.98-1.19,4.438-1.865a2.39,2.39,0,0,0,1.469-2.38c-.086-1.758-.129-3.516-.386-5.253a91.629,91.629,0,0,0-3.442-13.476c-.257-.826-.525-1.651-.783-2.487m-27.639-.708c-.536-2.3-1.136-4.5-1.533-6.733a24.827,24.827,0,0,1-.343-4.546c.032-3.688,2.123-6.207,5.017-8.137a10.891,10.891,0,0,1,6.175-2.123,8.764,8.764,0,0,1,2.873.557c3.377,1.244,5.543,3.774,7.129,6.894a39.227,39.227,0,0,1,2.777,7.537c.064.225.118.45.172.633a22.345,22.345,0,0,1,2.359-.1,4.109,4.109,0,0,1,4.031,4.942c-.257,1.747.386,3.3.89,4.889a72.012,72.012,0,0,1,3.313,12.758,36.817,36.817,0,0,1,.257,5.328,4.44,4.44,0,0,1-2.884,4.213c-1.994.826-4.042,1.555-6.089,2.241a43.494,43.494,0,0,1-10.882,2.251c-2.326.139-4.663.064-7,.075-.129,0-.257-.043-.386-.043a3.292,3.292,0,0,1-3.205-2.734q-1.383-5.339-2.852-10.635c-.9-3.248-1.887-6.475-2.734-9.735a16.939,16.939,0,0,1-.536-3.742,3.927,3.927,0,0,1,2.884-3.57,4.782,4.782,0,0,1,.568-.225" transform="translate(-737.213 -441.953)" fill="#1d1d1b"/>
    </g>
    <g id="Groupe_4" data-name="Groupe 4" clip-path="url(#clip-path)">
      <path id="Tracé_22" data-name="Tracé 22" d="M1123.495,498.235a49.45,49.45,0,0,1,10.732-2.67,2.143,2.143,0,0,0-.064-.311,20.083,20.083,0,0,0-3.6-6.4,3.368,3.368,0,0,0-2.991-1.179,7.57,7.57,0,0,0-1.887.386,4.114,4.114,0,0,0-3.1,3.634C1122.39,493.914,1123.066,496.016,1123.495,498.235Zm-4.824,3.013c-2.637.322-4,2.884-2.659,4.878a1.033,1.033,0,0,0,.633.44,16.244,16.244,0,0,0,3.141.1,50.036,50.036,0,0,0,5.2-.847c4.1-.9,8.191-1.833,12.254-2.841a38.539,38.539,0,0,0,7.655-2.8,1.434,1.434,0,0,0,.654-.783,3.007,3.007,0,0,0-1.168-3.356,3.722,3.722,0,0,0-3.924-.3c.129.45.29.9.375,1.351a2.156,2.156,0,0,1-1.683,2.745,7.043,7.043,0,0,1-2.219.172c-1.019-.064-1.383-.461-1.6-1.458-.107-.5-.225-1.008-.365-1.5a.567.567,0,0,0-.729-.429,45.01,45.01,0,0,0-8.877,2.133c-.515.193-1.008.429-1.565.665.268.547.493,1.008.718,1.458a1.607,1.607,0,0,1-.536,2.3,5.187,5.187,0,0,1-3.13,1,1.739,1.739,0,0,1-1.651-1.4c-.119-.515-.355-1.008-.526-1.523Zm3.742-4.192a17.072,17.072,0,0,1-.386-6.465c.665-3.742,5.65-5.746,8.673-2.916a13.732,13.732,0,0,1,3.248,4.589c.868,2,1.565,4.085,2.359,6.122.086.214.257.482.45.536a3.551,3.551,0,0,0,2.852-.354.876.876,0,0,0,.483-1.126c-.976-2.948-1.844-5.95-2.927-8.856a14.808,14.808,0,0,0-4.235-6.293c-2.337-1.951-5-2.863-8.019-1.951a12.958,12.958,0,0,0-5.564,3.474,7.286,7.286,0,0,0-2.187,4.889,24.54,24.54,0,0,0,.225,4.16,56.559,56.559,0,0,0,1.029,5.693,42.123,42.123,0,0,0,1.426,4.2.528.528,0,0,0,.407.279,16.462,16.462,0,0,0,2.723-.354c.9-.247.922-.461.654-1.372C1123.13,499.629,1122.658,497.924,1122.412,497.056Zm23.146,3.881c-.611.343-1.147.708-1.726.965a50.15,50.15,0,0,1-9.37,2.895c-2.669.6-5.36,1.147-8.041,1.715-3.216.675-6.411,1.6-9.767,1.072-.5-.075-.59.193-.44.622.2.59.429,1.168.59,1.769,1.222,4.674,2.423,9.359,3.667,14.023.375,1.4.847,2.787,1.3,4.181a1.856,1.856,0,0,0,1.9,1.351,51.441,51.441,0,0,0,10.271-.407,53.668,53.668,0,0,0,10.324-2.723c1.5-.547,2.98-1.19,4.438-1.865a2.39,2.39,0,0,0,1.469-2.38c-.086-1.758-.129-3.516-.386-5.253a91.661,91.661,0,0,0-3.442-13.476C1146.083,502.6,1145.816,501.773,1145.558,500.937Zm-27.639-.708c-.536-2.3-1.136-4.5-1.533-6.733a24.827,24.827,0,0,1-.343-4.546c.032-3.688,2.123-6.207,5.017-8.137a10.892,10.892,0,0,1,6.175-2.123,8.765,8.765,0,0,1,2.873.557c3.377,1.244,5.543,3.774,7.129,6.894a39.227,39.227,0,0,1,2.777,7.537c.064.225.118.45.172.633a22.358,22.358,0,0,1,2.359-.1,4.109,4.109,0,0,1,4.031,4.942c-.257,1.747.386,3.3.89,4.889a72.011,72.011,0,0,1,3.313,12.758,36.8,36.8,0,0,1,.257,5.328,4.44,4.44,0,0,1-2.884,4.213c-1.994.826-4.042,1.555-6.089,2.241a43.492,43.492,0,0,1-10.882,2.251c-2.326.139-4.663.064-7,.075-.129,0-.257-.043-.386-.043a3.292,3.292,0,0,1-3.205-2.734q-1.383-5.339-2.852-10.635c-.9-3.248-1.887-6.475-2.734-9.735a16.946,16.946,0,0,1-.536-3.742,3.927,3.927,0,0,1,2.884-3.57,4.777,4.777,0,0,1,.568-.225Z" transform="translate(-737.213 -441.953)" fill="none" stroke="#1d1d1b" stroke-miterlimit="10" stroke-width="2.158"/>
    </g>
    <g id="Groupe_5" data-name="Groupe 5" clip-path="url(#clip-path)">
      <path id="Tracé_23" data-name="Tracé 23" d="M1135.695,519.795c-.107-.568-.182-1.136-.332-1.683-.289-1.115-.643-2.219-.922-3.345a1.124,1.124,0,0,1,.182-.793,1.351,1.351,0,0,0-.021-1.769,2,2,0,0,0-2.123-.7c-.793.214-.9.911-1.051,1.544-.182.783.354,1.169.954,1.48a2.536,2.536,0,0,1,1.265,1.694c.279,1.008.536,2.026.793,3.045.172.633.579.718,1.254.525m.557-1.319c.032.289.107.836.161,1.394a.749.749,0,0,1-.675.911c-1.447.279-1.34.547-1.941-1.008-.418-1.072-.654-2.219-1.04-3.313a2.234,2.234,0,0,0-.632-.729,1.588,1.588,0,0,0-.407-.193,2.387,2.387,0,0,1-1.329-3.506,2.567,2.567,0,0,1,3.6-1.276,2.66,2.66,0,0,1,1.426,3.581,1.93,1.93,0,0,0-.032,1.1c.225.933.526,1.855.869,3.034" transform="translate(-737.213 -441.953)" fill="#1d1d1b"/>
    </g>
    <g id="Groupe_6" data-name="Groupe 6" clip-path="url(#clip-path)">
      <path id="Tracé_24" data-name="Tracé 24" d="M1135.695,519.795c-.107-.568-.182-1.136-.332-1.683-.289-1.115-.643-2.219-.922-3.345a1.124,1.124,0,0,1,.182-.793,1.351,1.351,0,0,0-.021-1.769,2,2,0,0,0-2.123-.7c-.793.214-.9.911-1.051,1.544-.182.783.354,1.169.954,1.48a2.536,2.536,0,0,1,1.265,1.694c.279,1.008.536,2.026.793,3.045C1134.612,519.9,1135.02,519.988,1135.695,519.795Zm.557-1.319c.032.289.107.836.161,1.394a.749.749,0,0,1-.675.911c-1.447.279-1.34.547-1.941-1.008-.418-1.072-.654-2.219-1.04-3.313a2.234,2.234,0,0,0-.632-.729,1.588,1.588,0,0,0-.407-.193,2.387,2.387,0,0,1-1.329-3.506,2.568,2.568,0,0,1,3.6-1.276,2.66,2.66,0,0,1,1.426,3.581,1.93,1.93,0,0,0-.032,1.1c.226.933.526,1.855.869,3.034Z" transform="translate(-737.213 -441.953)" fill="none" stroke="#1d1d1b" stroke-miterlimit="10" stroke-width="2.158"/>
    </g>
    <g id="Groupe_7" data-name="Groupe 7" clip-path="url(#clip-path)">
      <path id="Tracé_25" data-name="Tracé 25" d="M1143.821,521c.354.5-.075.9-.225,1.329-.021.054-.247.1-.343.054s-.2-.214-.172-.279c.139-.407.322-.8.483-1.2q.113.048.257.1" transform="translate(-737.213 -441.953)" fill="#1d1d1b"/>
    </g>
    <g id="Groupe_8" data-name="Groupe 8" clip-path="url(#clip-path)">
      <path id="Tracé_26" data-name="Tracé 26" d="M1143.821,521c.354.5-.075.9-.225,1.329-.021.054-.247.1-.343.054s-.2-.214-.172-.279c.139-.407.322-.8.483-1.2Q1143.677,520.947,1143.821,521Z" transform="translate(-737.213 -441.953)" fill="none" stroke="#1d1d1b" stroke-miterlimit="10" stroke-width="2.158"/>
    </g>
    <g id="Groupe_9" data-name="Groupe 9" clip-path="url(#clip-path)">
      <path id="Tracé_27" data-name="Tracé 27" d="M1145.837,521.714a6.647,6.647,0,0,1-.44,1.018c-.075.118-.364.086-.557.129.011-.2-.054-.482.054-.611a4.9,4.9,0,0,1,.772-.622c.054.021.107.054.172.086" transform="translate(-737.213 -441.953)" fill="#1d1d1b"/>
    </g>
    <g id="Groupe_10" data-name="Groupe 10" clip-path="url(#clip-path)">
      <path id="Tracé_28" data-name="Tracé 28" d="M1145.837,521.714a6.647,6.647,0,0,1-.44,1.018c-.075.118-.364.086-.557.129.011-.2-.054-.482.054-.611a4.9,4.9,0,0,1,.772-.622C1145.719,521.65,1145.773,521.682,1145.837,521.714Z" transform="translate(-737.213 -441.953)" fill="none" stroke="#1d1d1b" stroke-miterlimit="10" stroke-width="2.158"/>
    </g>
    <g id="Groupe_11" data-name="Groupe 11" clip-path="url(#clip-path)">
      <path id="Tracé_29" data-name="Tracé 29" d="M1120.857,510.982c.236-.193.472-.386.7-.579.5.429.15.74-.1.976-.075.075-.418-.107-.632-.172a1.628,1.628,0,0,1,.032-.225" transform="translate(-737.213 -441.953)" fill="#1d1d1b"/>
    </g>
    <g id="Groupe_12" data-name="Groupe 12" clip-path="url(#clip-path)">
      <path id="Tracé_30" data-name="Tracé 30" d="M1120.857,510.982c.236-.193.472-.386.7-.579.5.429.15.74-.1.976-.075.075-.418-.107-.632-.172a1.628,1.628,0,0,1,.032-.225Z" transform="translate(-737.213 -441.953)" fill="none" stroke="#1d1d1b" stroke-miterlimit="10" stroke-width="2.158"/>
    </g>
    <g id="Groupe_13" data-name="Groupe 13" clip-path="url(#clip-path)">
      <path id="Tracé_31" data-name="Tracé 31" d="M1121.854,511.7c.236.214.472.375.45.418a1.508,1.508,0,0,1-.407.525c-.064.043-.268-.086-.407-.139.107-.225.214-.45.365-.8" transform="translate(-737.213 -441.953)" fill="#1d1d1b"/>
    </g>
    <g id="Groupe_14" data-name="Groupe 14" clip-path="url(#clip-path)">
      <path id="Tracé_32" data-name="Tracé 32" d="M1121.854,511.7c.236.214.472.375.45.418a1.508,1.508,0,0,1-.407.525c-.064.043-.268-.086-.407-.139C1121.6,512.279,1121.7,512.054,1121.854,511.7Z" transform="translate(-737.213 -441.953)" fill="none" stroke="#1d1d1b" stroke-miterlimit="10" stroke-width="2.158"/>
    </g>
  </g>
</svg>
